HIERARCHY
ROOT teapot2
{
	OFFSET 0.000000 0.000000 0.000000
	CHANNELS 6 Xposition Yposition Zposition Yrotation Xrotation Zrotation
	End Site
	{
		OFFSET 0.000000 0.000000 0.000000
	}
}
MOTION
Frames: 140
Frame Time: 0.008333334
2.348646 3.659221 4.331607 75.205140 3.627133 -1.287659 
2.348240 3.659162 4.331621 75.208250 3.619028 -1.271912 
2.347930 3.659192 4.331497 75.214300 3.597604 -1.277710 
2.347854 3.659133 4.331712 75.203700 3.625181 -1.278961 
2.348112 3.659044 4.331865 75.211650 3.669914 -1.267944 
2.348544 3.659073 4.332061 75.197380 3.659449 -1.276642 
2.348974 3.658868 4.332334 75.193490 3.705222 -1.266602 
2.349041 3.658874 4.332493 75.187060 3.696424 -1.279083 
2.349284 3.658957 4.332938 75.206530 3.646899 -1.244904 
2.349172 3.659001 4.333168 75.184470 3.641693 -1.246063 
2.349022 3.658934 4.333577 75.196080 3.633300 -1.229645 
2.348979 3.659013 4.333566 75.190380 3.658072 -1.216980 
2.348967 3.659153 4.333580 75.213690 3.650646 -1.214081 
2.348923 3.658969 4.333681 75.190390 3.648916 -1.220825 
2.348943 3.659103 4.333428 75.196800 3.620763 -1.235321 
2.348725 3.659123 4.333547 75.199220 3.633714 -1.229645 
2.348869 3.659220 4.333011 75.174550 3.581764 -1.256622 
2.348887 3.659153 4.332812 75.170130 3.671828 -1.252808 
2.349151 3.658947 4.332439 75.196440 3.660002 -1.267456 
2.349195 3.658945 4.332140 75.189440 3.674191 -1.267365 
2.348892 3.659008 4.332243 75.207440 3.645294 -1.279236 
2.348552 3.659077 4.332170 75.191090 3.626981 -1.261902 
2.348325 3.659245 4.332309 75.165760 3.603251 -1.270966 
2.348385 3.659256 4.332504 75.164530 3.614706 -1.275238 
2.348448 3.659317 4.332693 75.171810 3.633335 -1.267944 
2.348738 3.659099 4.333077 75.185970 3.667522 -1.242401 
2.348728 3.659083 4.333484 75.192320 3.666965 -1.238983 
2.348634 3.659233 4.333599 75.173550 3.599730 -1.237396 
2.348763 3.659139 4.334019 75.183970 3.642018 -1.222687 
2.348687 3.659183 4.334036 75.163150 3.667573 -1.239624 
2.348788 3.659245 4.334238 75.178180 3.665475 -1.239594 
2.348772 3.659132 4.334303 75.173940 3.669420 -1.223511 
2.348689 3.659188 4.334146 75.174060 3.679563 -1.216644 
2.348611 3.659120 4.334033 75.198250 3.657444 -1.171478 
2.348047 3.659683 4.333767 75.118810 3.777866 -1.271423 
2.348356 3.659384 4.333813 75.183030 3.674828 -1.246948 
2.348588 3.659272 4.333438 75.215780 3.677206 -1.220428 
2.348745 3.659169 4.333157 75.209580 3.669650 -1.235016 
2.348695 3.659307 4.332796 75.195180 3.702003 -1.258118 
2.348746 3.659247 4.332705 75.202410 3.716890 -1.246704 
2.348434 3.659457 4.332567 75.227780 3.711384 -1.233795 
2.348374 3.659440 4.332686 75.218450 3.651763 -1.254730 
2.348183 3.659524 4.332726 75.201110 3.657720 -1.264099 
2.348750 3.659214 4.332976 75.191950 3.652915 -1.272583 
2.348896 3.658990 4.333414 75.207050 3.642276 -1.245148 
2.348712 3.659206 4.333449 75.190990 3.614594 -1.259338 
2.348742 3.659107 4.333784 75.184270 3.672955 -1.250732 
2.348819 3.659214 4.333817 75.208610 3.638555 -1.200653 
2.348852 3.659266 4.333937 75.211710 3.647237 -1.194244 
2.348603 3.659560 4.333770 75.176320 3.634341 -1.240906 
2.348915 3.659262 4.333761 75.201340 3.615273 -1.215454 
2.348866 3.659404 4.333710 75.185820 3.647272 -1.227875 
2.348853 3.659331 4.333593 75.182310 3.647388 -1.234131 
2.348963 3.659192 4.333507 75.198870 3.629632 -1.221283 
2.349039 3.659125 4.333496 75.196990 3.653148 -1.219086 
2.348988 3.659225 4.333255 75.182900 3.676658 -1.237885 
2.348841 3.659216 4.332964 75.210820 3.671975 -1.264862 
2.349136 3.659067 4.333238 75.212010 3.660758 -1.235504 
2.349117 3.659092 4.333288 75.190020 3.667699 -1.222839 
2.348766 3.659057 4.333075 75.222170 3.623027 -1.242126 
2.348909 3.659186 4.333501 75.191990 3.646521 -1.226196 
2.348705 3.659248 4.333566 75.191940 3.607970 -1.257599 
2.348964 3.658932 4.333784 75.180560 3.587298 -1.255798 
2.349089 3.658950 4.333861 75.202520 3.623067 -1.243683 
2.349172 3.658802 4.334011 75.195760 3.606541 -1.256439 
2.349149 3.658762 4.334076 75.195520 3.602056 -1.257874 
2.349116 3.658964 4.334038 75.174910 3.630859 -1.233917 
2.348989 3.658896 4.334092 75.173710 3.599662 -1.252289 
2.348924 3.659233 4.333914 75.192530 3.686004 -1.226166 
2.348931 3.659148 4.333976 75.193450 3.692677 -1.220673 
2.348954 3.658892 4.333939 75.200330 3.653142 -1.243042 
2.348726 3.659007 4.333927 75.180300 3.661357 -1.255310 
2.348550 3.659163 4.333694 75.172390 3.618176 -1.282196 
2.348900 3.659020 4.333705 75.189690 3.643252 -1.241547 
2.348688 3.659443 4.333666 75.125880 3.696259 -1.330078 
2.348809 3.659333 4.333698 75.149390 3.739882 -1.303253 
2.348947 3.659170 4.333685 75.156710 3.686667 -1.289398 
2.348897 3.659077 4.333756 75.181580 3.665368 -1.261963 
2.348927 3.658949 4.333976 75.180900 3.647422 -1.243073 
2.348741 3.658900 4.334127 75.183750 3.651637 -1.247406 
2.348652 3.658914 4.334179 75.189010 3.666448 -1.242462 
2.348809 3.658963 4.334213 75.181290 3.658616 -1.224701 
2.348755 3.658961 4.334210 75.185920 3.629818 -1.234436 
2.348758 3.658889 4.334196 75.197640 3.674300 -1.214661 
2.348640 3.658917 4.334432 75.202640 3.676670 -1.213928 
2.348856 3.659017 4.334182 75.224110 3.599042 -1.213013 
2.348715 3.659119 4.334165 75.210940 3.615856 -1.204163 
2.348875 3.659083 4.334228 75.198640 3.608552 -1.201721 
2.348717 3.659127 4.333999 75.214330 3.604676 -1.203369 
2.348366 3.659341 4.333484 75.178110 3.585217 -1.250153 
2.348285 3.659382 4.333079 75.172930 3.586448 -1.246033 
2.348162 3.659351 4.332536 75.207940 3.600337 -1.245514 
2.348224 3.659318 4.332190 75.190540 3.570401 -1.269989 
2.348108 3.659303 4.332045 75.199180 3.561004 -1.272552 
2.347906 3.659264 4.331757 75.215480 3.580359 -1.253387 
2.348011 3.659185 4.331975 75.208570 3.557842 -1.264557 
2.347868 3.659337 4.332127 75.206410 3.576892 -1.257507 
2.348023 3.659227 4.332527 75.206380 3.612128 -1.250641 
2.348387 3.659075 4.333266 75.205770 3.613209 -1.219269 
2.347957 3.659126 4.333797 75.156060 3.627148 -1.251740 
2.348301 3.658872 4.334352 75.206820 3.615815 -1.197723 
2.348377 3.658787 4.334711 75.192000 3.638384 -1.194305 
2.348407 3.658800 4.335001 75.199710 3.644864 -1.197754 
2.348684 3.658800 4.334899 75.182280 3.646286 -1.203217 
2.348713 3.658832 4.335008 75.190970 3.644336 -1.204956 
2.348521 3.658939 4.334920 75.175940 3.628084 -1.199219 
2.348338 3.658939 4.334806 75.201570 3.650345 -1.186188 
2.347909 3.659099 4.334522 75.182790 3.600399 -1.219666 
2.347934 3.658943 4.334406 75.173550 3.625044 -1.228699 
2.347665 3.659016 4.334108 75.165390 3.636365 -1.236786 
2.347978 3.658809 4.333956 75.196620 3.644521 -1.237061 
2.348013 3.658722 4.333960 75.195370 3.666471 -1.227264 
2.347886 3.658848 4.333863 75.190320 3.650664 -1.267853 
2.348021 3.659002 4.333869 75.178320 3.651283 -1.219788 
2.348044 3.658899 4.334122 75.176190 3.646085 -1.208435 
2.347952 3.659088 4.334114 75.182070 3.599026 -1.209229 
2.348087 3.658974 4.334530 75.196110 3.618676 -1.193115 
2.347904 3.659046 4.334913 75.182790 3.652399 -1.211853 
2.347860 3.659062 4.335044 75.196620 3.636137 -1.201935 
2.347661 3.658758 4.335562 75.199080 3.663855 -1.185120 
2.347776 3.658648 4.336164 75.204700 3.670876 -1.158112 
2.347910 3.658777 4.335943 75.188660 3.666105 -1.190125 
2.348153 3.658655 4.336031 75.197400 3.647496 -1.191742 
2.348302 3.658680 4.335834 75.182330 3.685628 -1.215576 
2.348185 3.659030 4.335706 75.130610 3.763235 -1.291168 
2.348219 3.659147 4.335432 75.139040 3.752663 -1.307861 
2.348164 3.658841 4.335462 75.166280 3.735845 -1.247498 
2.347948 3.658967 4.335164 75.165660 3.707573 -1.259003 
2.347759 3.658544 4.335425 75.183240 3.688233 -1.170593 
2.347354 3.658977 4.335114 75.175150 3.673481 -1.238159 
2.347428 3.658783 4.334910 75.174060 3.666991 -1.217072 
2.347787 3.658555 4.335010 75.177410 3.705833 -1.196960 
2.347869 3.658501 4.335107 75.176320 3.662106 -1.221313 
2.347860 3.658476 4.335463 75.194850 3.687484 -1.204895 
2.348116 3.658345 4.335638 75.192340 3.659594 -1.194427 
2.348166 3.658407 4.335808 75.181190 3.677449 -1.208344 
2.348126 3.658337 4.335759 75.181620 3.686593 -1.202545 
2.348127 3.658273 4.335826 75.200520 3.662549 -1.187622 
2.347803 3.658398 4.335828 75.177190 3.670441 -1.204926 
2.347547 3.658251 4.335789 75.178150 3.684058 -1.179443 
